# xmcd
#
# Track frame offsets: 
#        150
#        12814
#        26742
#        38722
#        49485
#        61058
#        70265
#        81209
#        91657
#        102401
#        111734
#        123198
#        132581
#        143212
#        156682
#        168537
#        180823
#        194421
#        207320
#        216661
#
# Disc length: 3021 seconds
#
# Revision: 0
# Processed by: cddbd v1.5.2PL0 Copyright (c) Steve Scherf et al.
# Submitted via: ExactAudioCopyFreeDBPlugin 1.0
#
DISCID=2c0bcb14
DTITLE=Various Artist - Super Soul Sisters:  60 Timeless Soul Grooves
DTITLE=[Not Now Music]
DYEAR=2016
DGENRE=Soul
TTITLE0=Martha Reeves and The Vandellas - I'll Have to Let Him Go
TTITLE1=Betty Everett - Your Love is Important to Me
TTITLE2=Patti LaBelle and The Bluebells - Tear After Tear
TTITLE3=Barbara Lynn - You'll Lose a Good Thing
TTITLE4=Claudine Clark - Your Love
TTITLE5=Gladys Knight and The Pips - Every Beat of My Heart
TTITLE6=Yvonne Fair and The James Brown Band - If I Knew
TTITLE7=Mitty Collier - Don't Let Her Take My Baby
TTITLE8=Barbara George - I Know (You Don't Love Me No More)
TTITLE9=Irma Thomas - It's Raining
TTITLE10=Gerri Granger - Castle in the Sky
TTITLE11=Freda Payne - He Who Laughs Last
TTITLE12=Baby Washington - A Handful of Memories
TTITLE13=Johnnie Mae Matthews - My Little Angel
TTITLE14=Maxine Brown - Promise Me Anything
TTITLE15=Gigi - Little Bit of Lovin'
TTITLE16=Beverly Ann Gibson - Love's Burning Fire
TTITLE17=Annie Laurie - Time Out for Tears
TTITLE18=Birdie Green - How Come
TTITLE19=Aretha Franklin - Trouble in Mind
EXTD=
EXTT0=
EXTT1=
EXTT2=
EXTT3=
EXTT4=
EXTT5=
EXTT6=
EXTT7=
EXTT8=
EXTT9=
EXTT10=
EXTT11=
EXTT12=
EXTT13=
EXTT14=
EXTT15=
EXTT16=
EXTT17=
EXTT18=
EXTT19=
PLAYORDER=
